<mxfile host="app.diagrams.net" modified="2024-06-26T22:30:31.393Z" agent="Mozilla/5.0 (Windows NT 10.0; Win64; x64) AppleWebKit/537.36 (KHTML, like Gecko) Chrome/126.0.0.0 Safari/537.36" etag="m9Gk6OE3iAPmUa7ZADPD" version="24.6.3" type="github">
  <diagram name="페이지-1" id="1qrbFuu3WUptNkjhChFu">
    <mxGraphModel dx="4063" dy="2419" grid="1" gridSize="10" guides="1" tooltips="1" connect="1" arrows="1" fold="1" page="1" pageScale="1" pageWidth="1100" pageHeight="850" math="0" shadow="0">
      <root>
        <mxCell id="0" />
        <mxCell id="1" parent="0" />
        <mxCell id="GTlxUvP9jJAlqA31DBO1-4" value="CheckConditions" style="swimlane;whiteSpace=wrap;html=1;" vertex="1" parent="1">
          <mxGeometry x="-450" y="-200" width="880" height="620" as="geometry" />
        </mxCell>
        <mxCell id="GTlxUvP9jJAlqA31DBO1-5" value="CheckIfCanJump()" style="swimlane;whiteSpace=wrap;html=1;" vertex="1" parent="GTlxUvP9jJAlqA31DBO1-4">
          <mxGeometry x="380" y="70" width="200" height="200" as="geometry" />
        </mxCell>
        <mxCell id="GTlxUvP9jJAlqA31DBO1-29" value="1. Check&lt;div&gt;&lt;br&gt;&lt;/div&gt;&lt;div&gt;&lt;span style=&quot;white-space: pre;&quot;&gt;&#x9;&lt;/span&gt;1-1. canWallJump&lt;/div&gt;&lt;div&gt;&lt;br&gt;&lt;/div&gt;&lt;div&gt;&lt;span style=&quot;white-space: pre;&quot;&gt;&#x9;&lt;/span&gt;1-2. canNormalJump&lt;/div&gt;&lt;div&gt;&lt;br&gt;&lt;/div&gt;&lt;div&gt;2. Reset&lt;/div&gt;&lt;div&gt;&lt;span style=&quot;white-space: pre;&quot;&gt;&#x9;&lt;/span&gt;&lt;/div&gt;&lt;div&gt;&lt;span style=&quot;white-space: pre;&quot;&gt;&#x9;&lt;/span&gt;2-1 amountOfJumpsLeft&amp;nbsp;&lt;/div&gt;" style="text;html=1;whiteSpace=wrap;overflow=hidden;rounded=0;" vertex="1" parent="GTlxUvP9jJAlqA31DBO1-5">
          <mxGeometry x="20" y="35" width="180" height="155" as="geometry" />
        </mxCell>
        <mxCell id="GTlxUvP9jJAlqA31DBO1-6" value="CheckMovementDirection()" style="swimlane;whiteSpace=wrap;html=1;" vertex="1" parent="GTlxUvP9jJAlqA31DBO1-4">
          <mxGeometry x="380" y="350" width="200" height="200" as="geometry" />
        </mxCell>
        <mxCell id="GTlxUvP9jJAlqA31DBO1-30" value="1. Check&lt;div&gt;&lt;br&gt;&lt;/div&gt;&lt;div&gt;&lt;span style=&quot;white-space: pre;&quot;&gt;&#x9;&lt;/span&gt;1-1 isWalking&lt;br&gt;&lt;/div&gt;&lt;div&gt;&lt;br&gt;&lt;/div&gt;&lt;div&gt;2. Flip&lt;/div&gt;" style="text;html=1;whiteSpace=wrap;overflow=hidden;rounded=0;" vertex="1" parent="GTlxUvP9jJAlqA31DBO1-6">
          <mxGeometry x="10" y="30" width="180" height="160" as="geometry" />
        </mxCell>
        <mxCell id="GTlxUvP9jJAlqA31DBO1-7" value="CheckJump()" style="swimlane;whiteSpace=wrap;html=1;" vertex="1" parent="GTlxUvP9jJAlqA31DBO1-4">
          <mxGeometry x="80" y="350" width="200" height="200" as="geometry" />
        </mxCell>
        <mxCell id="GTlxUvP9jJAlqA31DBO1-34" value="1. Execute&lt;div&gt;&lt;span style=&quot;white-space: pre;&quot;&gt;&#x9;&lt;/span&gt;&lt;br&gt;&lt;/div&gt;&lt;div&gt;&lt;span style=&quot;white-space: pre;&quot;&gt;&#x9;&lt;/span&gt;1-1 WallJump()&lt;br&gt;&lt;/div&gt;&lt;div&gt;&lt;br&gt;&lt;/div&gt;&lt;div&gt;&lt;span style=&quot;white-space: pre;&quot;&gt;&#x9;&lt;/span&gt;1-2 NormalJump()&lt;br&gt;&lt;/div&gt;" style="text;html=1;whiteSpace=wrap;overflow=hidden;rounded=0;" vertex="1" parent="GTlxUvP9jJAlqA31DBO1-7">
          <mxGeometry x="10" y="30" width="180" height="160" as="geometry" />
        </mxCell>
        <mxCell id="GTlxUvP9jJAlqA31DBO1-17" value="CheckSurroundings()" style="swimlane;whiteSpace=wrap;html=1;" vertex="1" parent="GTlxUvP9jJAlqA31DBO1-4">
          <mxGeometry x="80" y="70" width="200" height="200" as="geometry" />
        </mxCell>
        <mxCell id="GTlxUvP9jJAlqA31DBO1-28" value="&lt;div&gt;1. Detects&lt;/div&gt;&lt;div&gt;&lt;br&gt;&lt;/div&gt;&lt;span style=&quot;white-space: pre;&quot;&gt;&#x9;&lt;/span&gt;1-1 isGrounded&amp;nbsp;&lt;div&gt;&lt;br&gt;&lt;/div&gt;&lt;div&gt;&lt;span style=&quot;white-space: pre;&quot;&gt;&#x9;&lt;/span&gt;1-2&amp;nbsp;&amp;nbsp;isTouchingWall&lt;/div&gt;" style="text;html=1;whiteSpace=wrap;overflow=hidden;rounded=0;" vertex="1" parent="GTlxUvP9jJAlqA31DBO1-17">
          <mxGeometry x="10" y="35" width="180" height="155" as="geometry" />
        </mxCell>
        <mxCell id="GTlxUvP9jJAlqA31DBO1-2" value="CheckIfWallSliding()" style="swimlane;whiteSpace=wrap;html=1;" vertex="1" parent="GTlxUvP9jJAlqA31DBO1-4">
          <mxGeometry x="650" y="70" width="200" height="200" as="geometry" />
        </mxCell>
        <mxCell id="GTlxUvP9jJAlqA31DBO1-8" value="Conditions&lt;div&gt;&lt;br&gt;&lt;/div&gt;&lt;div&gt;1. Touching Wall&lt;/div&gt;&lt;div&gt;&lt;span style=&quot;white-space: pre;&quot;&gt;&#x9;&lt;/span&gt;- isTouchingWall&lt;br&gt;&lt;/div&gt;&lt;div&gt;2. Moving Towards the wall&lt;/div&gt;&lt;div&gt;&lt;span style=&quot;white-space: pre;&quot;&gt;&#x9;&lt;/span&gt;- mvmntInputDir == &lt;span style=&quot;white-space: pre;&quot;&gt;&#x9;&lt;/span&gt;&amp;nbsp; &lt;span style=&quot;white-space: pre;&quot;&gt;&#x9;&lt;/span&gt;&lt;span style=&quot;white-space: pre;&quot;&gt;&#x9;&lt;/span&gt;facingDir&lt;br&gt;&lt;/div&gt;&lt;div&gt;3. falling&amp;nbsp;&lt;/div&gt;&lt;div&gt;&lt;span style=&quot;white-space: pre;&quot;&gt;&#x9;&lt;/span&gt;rb.velocity.y &amp;lt; 0&lt;br&gt;&lt;/div&gt;&lt;div&gt;&lt;br&gt;&lt;/div&gt;&lt;div&gt;&lt;b&gt;&lt;font style=&quot;font-size: 13px;&quot;&gt;-&amp;gt; isWallSliding = true;&amp;nbsp;&lt;/font&gt;&lt;/b&gt;&lt;/div&gt;" style="text;html=1;whiteSpace=wrap;overflow=hidden;rounded=0;" vertex="1" parent="GTlxUvP9jJAlqA31DBO1-2">
          <mxGeometry x="10" y="30" width="180" height="160" as="geometry" />
        </mxCell>
        <mxCell id="GTlxUvP9jJAlqA31DBO1-19" value="NormalJump()" style="swimlane;whiteSpace=wrap;html=1;" vertex="1" parent="1">
          <mxGeometry x="1440" y="350" width="200" height="200" as="geometry" />
        </mxCell>
        <mxCell id="GTlxUvP9jJAlqA31DBO1-35" value="1. Performs&lt;div&gt;&lt;br&gt;&lt;/div&gt;&lt;div&gt;&lt;span style=&quot;white-space: pre;&quot;&gt;&#x9;&lt;/span&gt;1-1 Change y velocity&lt;br&gt;&lt;/div&gt;&lt;div&gt;&lt;br&gt;&lt;/div&gt;&lt;div&gt;&lt;span style=&quot;white-space: pre;&quot;&gt;&#x9;&lt;/span&gt;1-2 Decrease jumpLeft&lt;br&gt;&lt;/div&gt;&lt;div&gt;&lt;br&gt;&lt;/div&gt;&lt;div&gt;&lt;span style=&quot;white-space: pre;&quot;&gt;&#x9;&lt;/span&gt;1-3 isAttemptingToJump =&amp;nbsp;&lt;br&gt;&lt;/div&gt;&lt;div&gt;&lt;span style=&quot;white-space: pre;&quot;&gt;&#x9;&lt;/span&gt;&lt;span style=&quot;white-space: pre;&quot;&gt;&#x9;&lt;/span&gt;false&lt;br&gt;&lt;/div&gt;&lt;div&gt;&lt;br&gt;&lt;/div&gt;&lt;div&gt;&lt;span style=&quot;white-space: pre;&quot;&gt;&#x9;&lt;/span&gt;1-4 checkJumpMulti = true&lt;br&gt;&lt;/div&gt;" style="text;html=1;whiteSpace=wrap;overflow=hidden;rounded=0;" vertex="1" parent="GTlxUvP9jJAlqA31DBO1-19">
          <mxGeometry x="10" y="30" width="180" height="160" as="geometry" />
        </mxCell>
        <mxCell id="GTlxUvP9jJAlqA31DBO1-20" value="WallJump()" style="swimlane;whiteSpace=wrap;html=1;" vertex="1" parent="1">
          <mxGeometry x="730" y="350" width="200" height="200" as="geometry" />
        </mxCell>
        <mxCell id="GTlxUvP9jJAlqA31DBO1-36" value="1. Performs&lt;div&gt;&lt;br&gt;&lt;/div&gt;&lt;div&gt;&lt;span style=&quot;white-space: pre;&quot;&gt;&#x9;&lt;/span&gt;1-1 Change y velocity to 0&lt;br&gt;&lt;/div&gt;&lt;div&gt;&lt;br&gt;&lt;/div&gt;&lt;div&gt;&lt;span style=&quot;white-space: pre;&quot;&gt;&#x9;&lt;/span&gt;1-2 AddForce&lt;br&gt;&lt;/div&gt;&lt;div&gt;&lt;br&gt;&lt;/div&gt;&lt;div&gt;&lt;span style=&quot;white-space: pre;&quot;&gt;&#x9;&lt;/span&gt;1-3 canMove &amp;amp; canFlip&lt;br&gt;&lt;/div&gt;" style="text;html=1;whiteSpace=wrap;overflow=hidden;rounded=0;" vertex="1" parent="GTlxUvP9jJAlqA31DBO1-20">
          <mxGeometry x="10" y="30" width="180" height="160" as="geometry" />
        </mxCell>
        <mxCell id="GTlxUvP9jJAlqA31DBO1-21" value="ApplyMovement()" style="swimlane;whiteSpace=wrap;html=1;" vertex="1" parent="1">
          <mxGeometry x="1090" y="440" width="200" height="200" as="geometry" />
        </mxCell>
        <mxCell id="GTlxUvP9jJAlqA31DBO1-37" value="1. Apply Horizontal Movement&lt;div&gt;&lt;br&gt;&lt;/div&gt;&lt;div&gt;&lt;span style=&quot;white-space: pre;&quot;&gt;&#x9;&lt;/span&gt;1-1 On the ground&lt;br&gt;&lt;/div&gt;&lt;div&gt;&lt;br&gt;&lt;/div&gt;&lt;div&gt;&lt;span style=&quot;white-space: pre;&quot;&gt;&#x9;&lt;/span&gt;1-2 On the air&lt;br&gt;&lt;/div&gt;&lt;div&gt;&lt;br&gt;&lt;/div&gt;&lt;div&gt;&lt;span style=&quot;white-space: pre;&quot;&gt;&#x9;&lt;/span&gt;1-3 While wallsliding&lt;br&gt;&lt;/div&gt;" style="text;html=1;whiteSpace=wrap;overflow=hidden;rounded=0;" vertex="1" parent="GTlxUvP9jJAlqA31DBO1-21">
          <mxGeometry x="10" y="30" width="180" height="160" as="geometry" />
        </mxCell>
        <mxCell id="GTlxUvP9jJAlqA31DBO1-32" value="CheckInput()" style="swimlane;whiteSpace=wrap;html=1;" vertex="1" parent="1">
          <mxGeometry x="1090" y="60" width="200" height="200" as="geometry" />
        </mxCell>
        <mxCell id="GTlxUvP9jJAlqA31DBO1-33" value="1. GetButton&lt;div&gt;&lt;br&gt;&lt;/div&gt;&lt;div&gt;&lt;span style=&quot;white-space: pre;&quot;&gt;&#x9;&lt;/span&gt;1-1 Fire3 (Left Shift)&lt;br&gt;&lt;/div&gt;&lt;div&gt;&lt;span style=&quot;white-space: pre;&quot;&gt;&#x9;&lt;/span&gt;&lt;span style=&quot;white-space: pre;&quot;&gt;&#x9;&lt;/span&gt;= Dash&lt;br&gt;&lt;/div&gt;&lt;div&gt;&lt;br&gt;&lt;/div&gt;&lt;div&gt;&lt;span style=&quot;white-space: pre;&quot;&gt;&#x9;&lt;/span&gt;1-2 Jump&amp;nbsp;&lt;br&gt;&lt;/div&gt;&lt;div&gt;&lt;span style=&quot;white-space: pre;&quot;&gt;&#x9;&lt;/span&gt;&lt;span style=&quot;white-space: pre;&quot;&gt;&#x9;&lt;/span&gt;&lt;br&gt;&lt;/div&gt;&lt;div&gt;&lt;span style=&quot;white-space: pre;&quot;&gt;&#x9;&lt;/span&gt;1-3 Horizontal&lt;br&gt;&lt;/div&gt;" style="text;html=1;whiteSpace=wrap;overflow=hidden;rounded=0;" vertex="1" parent="GTlxUvP9jJAlqA31DBO1-32">
          <mxGeometry x="10" y="30" width="180" height="160" as="geometry" />
        </mxCell>
        <mxCell id="GTlxUvP9jJAlqA31DBO1-46" style="edgeStyle=orthogonalEdgeStyle;rounded=0;orthogonalLoop=1;jettySize=auto;html=1;entryX=0.5;entryY=0;entryDx=0;entryDy=0;" edge="1" parent="1" source="GTlxUvP9jJAlqA31DBO1-33" target="GTlxUvP9jJAlqA31DBO1-21">
          <mxGeometry relative="1" as="geometry" />
        </mxCell>
        <mxCell id="GTlxUvP9jJAlqA31DBO1-48" value="Horizontal Movement" style="text;html=1;align=center;verticalAlign=middle;resizable=0;points=[];autosize=1;strokeColor=none;fillColor=none;" vertex="1" parent="1">
          <mxGeometry x="1190" y="340" width="140" height="30" as="geometry" />
        </mxCell>
        <mxCell id="GTlxUvP9jJAlqA31DBO1-49" style="edgeStyle=orthogonalEdgeStyle;rounded=0;orthogonalLoop=1;jettySize=auto;html=1;exitX=1;exitY=1;exitDx=0;exitDy=0;entryX=0.5;entryY=0;entryDx=0;entryDy=0;" edge="1" parent="1" source="GTlxUvP9jJAlqA31DBO1-33" target="GTlxUvP9jJAlqA31DBO1-19">
          <mxGeometry relative="1" as="geometry" />
        </mxCell>
        <mxCell id="GTlxUvP9jJAlqA31DBO1-50" value="NormalJump()" style="text;html=1;align=center;verticalAlign=middle;resizable=0;points=[];autosize=1;strokeColor=none;fillColor=none;" vertex="1" parent="1">
          <mxGeometry x="1370" y="270" width="100" height="30" as="geometry" />
        </mxCell>
        <mxCell id="GTlxUvP9jJAlqA31DBO1-51" style="edgeStyle=orthogonalEdgeStyle;rounded=0;orthogonalLoop=1;jettySize=auto;html=1;exitX=0;exitY=1;exitDx=0;exitDy=0;entryX=0.5;entryY=0;entryDx=0;entryDy=0;" edge="1" parent="1" source="GTlxUvP9jJAlqA31DBO1-33" target="GTlxUvP9jJAlqA31DBO1-20">
          <mxGeometry relative="1" as="geometry">
            <mxPoint x="860" y="330" as="targetPoint" />
          </mxGeometry>
        </mxCell>
        <mxCell id="GTlxUvP9jJAlqA31DBO1-52" value="WallJump" style="text;html=1;align=center;verticalAlign=middle;resizable=0;points=[];autosize=1;strokeColor=none;fillColor=none;" vertex="1" parent="1">
          <mxGeometry x="920" y="270" width="80" height="30" as="geometry" />
        </mxCell>
        <mxCell id="GTlxUvP9jJAlqA31DBO1-53" value="Etc" style="swimlane;whiteSpace=wrap;html=1;" vertex="1" parent="1">
          <mxGeometry x="-450" y="450" width="880" height="550" as="geometry" />
        </mxCell>
        <mxCell id="GTlxUvP9jJAlqA31DBO1-18" value="UpdateAnimations()" style="swimlane;whiteSpace=wrap;html=1;" vertex="1" parent="GTlxUvP9jJAlqA31DBO1-53">
          <mxGeometry x="40" y="60" width="200" height="200" as="geometry" />
        </mxCell>
        <mxCell id="GTlxUvP9jJAlqA31DBO1-31" value="1. Link animator parameters to&lt;div&gt;&lt;span style=&quot;white-space: pre;&quot;&gt;&#x9;&lt;/span&gt;variables&lt;br&gt;&lt;/div&gt;" style="text;html=1;whiteSpace=wrap;overflow=hidden;rounded=0;" vertex="1" parent="GTlxUvP9jJAlqA31DBO1-18">
          <mxGeometry x="10" y="30" width="180" height="160" as="geometry" />
        </mxCell>
        <mxCell id="GTlxUvP9jJAlqA31DBO1-22" value="DisableFlip()" style="swimlane;whiteSpace=wrap;html=1;" vertex="1" parent="GTlxUvP9jJAlqA31DBO1-53">
          <mxGeometry x="320" y="60" width="200" height="200" as="geometry" />
        </mxCell>
        <mxCell id="GTlxUvP9jJAlqA31DBO1-39" value="1. canFlip = false" style="text;html=1;whiteSpace=wrap;overflow=hidden;rounded=0;" vertex="1" parent="GTlxUvP9jJAlqA31DBO1-22">
          <mxGeometry x="10" y="30" width="180" height="150" as="geometry" />
        </mxCell>
        <mxCell id="GTlxUvP9jJAlqA31DBO1-26" value="OnDrawGizmos()" style="swimlane;whiteSpace=wrap;html=1;" vertex="1" parent="GTlxUvP9jJAlqA31DBO1-53">
          <mxGeometry x="40" y="300" width="200" height="200" as="geometry" />
        </mxCell>
        <mxCell id="GTlxUvP9jJAlqA31DBO1-43" value="1. Gizmos" style="text;html=1;whiteSpace=wrap;overflow=hidden;rounded=0;" vertex="1" parent="GTlxUvP9jJAlqA31DBO1-26">
          <mxGeometry y="30" width="180" height="160" as="geometry" />
        </mxCell>
        <mxCell id="GTlxUvP9jJAlqA31DBO1-24" value="EnableFlip()" style="swimlane;whiteSpace=wrap;html=1;" vertex="1" parent="GTlxUvP9jJAlqA31DBO1-53">
          <mxGeometry x="320" y="300" width="200" height="200" as="geometry" />
        </mxCell>
        <mxCell id="GTlxUvP9jJAlqA31DBO1-40" value="1. canFlip = true" style="text;html=1;whiteSpace=wrap;overflow=hidden;rounded=0;" vertex="1" parent="GTlxUvP9jJAlqA31DBO1-24">
          <mxGeometry x="10" y="20" width="180" height="160" as="geometry" />
        </mxCell>
        <mxCell id="GTlxUvP9jJAlqA31DBO1-25" value="Flip()" style="swimlane;whiteSpace=wrap;html=1;" vertex="1" parent="GTlxUvP9jJAlqA31DBO1-53">
          <mxGeometry x="610" y="60" width="200" height="200" as="geometry" />
        </mxCell>
        <mxCell id="GTlxUvP9jJAlqA31DBO1-41" value="1. Flip&lt;div&gt;&lt;br&gt;&lt;/div&gt;&lt;div&gt;&lt;span style=&quot;white-space: pre;&quot;&gt;&#x9;&lt;/span&gt;1-1 Change FacingRight&lt;br&gt;&lt;/div&gt;&lt;div&gt;&lt;br&gt;&lt;/div&gt;&lt;div&gt;&lt;span style=&quot;white-space: pre;&quot;&gt;&#x9;&lt;/span&gt;1-2 Flip the Sprite 180&amp;nbsp;&lt;br&gt;&lt;/div&gt;" style="text;html=1;whiteSpace=wrap;overflow=hidden;rounded=0;" vertex="1" parent="GTlxUvP9jJAlqA31DBO1-25">
          <mxGeometry x="10" y="20" width="180" height="160" as="geometry" />
        </mxCell>
      </root>
    </mxGraphModel>
  </diagram>
</mxfile>
